# xmcd
#
# Track frame offsets:
# 150
# 21027
# 51137
# 72288
# 95412
# 111420
# 143762
# 153910
#
# Disc length: 2371 seconds
#
# Revision: 0
# Processed by: cddbd v1.5.1PL0 Copyright (c) Steve Scherf et al.
# Submitted via: Axialis_AX_CDPlayer 2.6
#
DISCID=65094108
DTITLE=Buddy Guy - Buddy Guy
DYEAR=1900
DGENRE=
TTITLE0=Change in the Weather
TTITLE1=Fever
TTITLE2=Hold That Plane
TTITLE3=I Could Cry
TTITLE4=Sufferin' Mind
TTITLE5=Chess Studio Sessions
TTITLE6=Too Many Ways
TTITLE7=Watermelon Man
EXTD=
EXTT0=
EXTT1=
EXTT2=
EXTT3=
EXTT4=
EXTT5=
EXTT6=
EXTT7=
PLAYORDER=
